HIERARCHY
ROOT hip
{
  OFFSET 0 0 0
  CHANNELS 6 Xposition Yposition Zposition Zrotation Yrotation Xrotation
  JOINT abdomen
  {
    OFFSET 0 20.6881 -0.73152
    CHANNELS 3 Zrotation Xrotation Yrotation
    JOINT chest
    {
      OFFSET 0 11.7043 -0.48768
      CHANNELS 3 Zrotation Xrotation Yrotation
      JOINT neck
      {
        OFFSET 0 22.1894 -2.19456
        CHANNELS 3 Zrotation Xrotation Yrotation
        JOINT head
        {
          OFFSET -0.24384 7.07133 1.2192
          CHANNELS 3 Zrotation Xrotation Yrotation
          JOINT leftEye
          {
            OFFSET 4.14528 8.04674 8.04672
            CHANNELS 3 Zrotation Xrotation Yrotation
            End Site
            {
              OFFSET 1 0 0
            }
          }
          JOINT rightEye
          {
            OFFSET -3.6576 8.04674 8.04672
            CHANNELS 3 Zrotation Xrotation Yrotation
            End Site
            {
              OFFSET 1 0 0
            }
          }
        }
      }
      JOINT rCollar
      {
        OFFSET -2.68224 19.2634 -4.8768
        CHANNELS 3 Zrotation Xrotation Yrotation
        JOINT rShldr
        {
          OFFSET -8.77824 -1.95073 1.46304
          CHANNELS 3 Zrotation Xrotation Yrotation
          JOINT rForeArm
          {
            OFFSET -28.1742 -1.7115 0.48768
            CHANNELS 3 Zrotation Xrotation Yrotation
            JOINT rHand
            {
              OFFSET -22.5879 0.773209 7.07136
              CHANNELS 3 Zrotation Xrotation Yrotation
              JOINT rThumb1
              {
                OFFSET -1.2192 -0.487915 3.41376
                CHANNELS 3 Zrotation Xrotation Yrotation
                JOINT rThumb2
                {
                  OFFSET -3.37035 -0.52449 3.41376
                  CHANNELS 3 Zrotation Xrotation Yrotation
                  End Site
                  {
                    OFFSET -1.78271 -1.18214 1.43049
                  }
                }
              }
              JOINT rIndex1
              {
                OFFSET -7.75947 0.938293 5.60832
                CHANNELS 3 Zrotation Xrotation Yrotation
                JOINT rIndex2
                {
                  OFFSET -2.54057 -0.884171 1.56538
                  CHANNELS 3 Zrotation Xrotation Yrotation
                  End Site
                  {
                    OFFSET -1.62519 -0.234802 1.16502
                  }
                }
              }
              JOINT rMid1
              {
                OFFSET -8.24714 1.18213 3.41376
                CHANNELS 3 Zrotation Xrotation Yrotation
                JOINT rMid2
                {
                  OFFSET -3.10165 -0.590103 1.0647
                  CHANNELS 3 Zrotation Xrotation Yrotation
                  End Site
                  {
                    OFFSET -2.48547 -0.328903 0.83742
                  }
                }
              }
              JOINT rRing1
              {
                OFFSET -8.82822 0.546677 1.51678
                CHANNELS 3 Zrotation Xrotation Yrotation
                JOINT rRing2
                {
                  OFFSET -2.60934 -0.819778 -0.0198488
                  CHANNELS 3 Zrotation Xrotation Yrotation
                  End Site
                  {
                    OFFSET -2.33842 -0.294052 0.168128
                  }
                }
              }
              JOINT rPinky1
              {
                OFFSET -8.27202 -0.0477905 -0.4584
                CHANNELS 3 Zrotation Xrotation Yrotation
                JOINT rPinky2
                {
                  OFFSET -1.82734 -0.647385 -0.700984
                  CHANNELS 3 Zrotation Xrotation Yrotation
                  End Site
                  {
                    OFFSET -1.69225 -0.51767 -0.607171
                  }
                }
              }
            }
          }
        }
      }
      JOINT lCollar
      {
        OFFSET 2.68224 19.2634 -4.8768
        CHANNELS 3 Zrotation Xrotation Yrotation
        JOINT lShldr
        {
          OFFSET 8.77824 -1.95073 1.46304
          CHANNELS 3 Zrotation Xrotation Yrotation
          JOINT lForeArm
          {
            OFFSET 28.1742 -1.7115 0.48768
            CHANNELS 3 Zrotation Xrotation Yrotation
            JOINT lHand
            {
              OFFSET 22.5879 0.773209 7.07136
              CHANNELS 3 Zrotation Xrotation Yrotation
              JOINT lThumb1
              {
                OFFSET 1.2192 -0.487915 3.41376
                CHANNELS 3 Zrotation Xrotation Yrotation
                JOINT lThumb2
                {
                  OFFSET 3.37035 -0.52449 3.41376
                  CHANNELS 3 Zrotation Xrotation Yrotation
                  End Site
                  {
                    OFFSET 1.78271 -1.18214 1.43049
                  }
                }
              }
              JOINT lIndex1
              {
                OFFSET 7.75947 0.938293 5.60832
                CHANNELS 3 Zrotation Xrotation Yrotation
                JOINT lIndex2
                {
                  OFFSET 2.54057 -0.884171 1.56538
                  CHANNELS 3 Zrotation Xrotation Yrotation
                  End Site
                  {
                    OFFSET 1.62519 -0.234802 1.16502
                  }
                }
              }
              JOINT lMid1
              {
                OFFSET 8.24714 1.18213 3.41376
                CHANNELS 3 Zrotation Xrotation Yrotation
                JOINT lMid2
                {
                  OFFSET 3.10165 -0.590103 1.0647
                  CHANNELS 3 Zrotation Xrotation Yrotation
                  End Site
                  {
                    OFFSET 2.48547 -0.328903 0.83742
                  }
                }
              }
              JOINT lRing1
              {
                OFFSET 8.82822 0.546677 1.51678
                CHANNELS 3 Zrotation Xrotation Yrotation
                JOINT lRing2
                {
                  OFFSET 2.60934 -0.819778 -0.0198488
                  CHANNELS 3 Zrotation Xrotation Yrotation
                  End Site
                  {
                    OFFSET 2.33842 -0.294052 0.168128
                  }
                }
              }
              JOINT lPinky1
              {
                OFFSET 8.27202 -0.0477905 -0.4584
                CHANNELS 3 Zrotation Xrotation Yrotation
                JOINT lPinky2
                {
                  OFFSET 1.82734 -0.647385 -0.700984
                  CHANNELS 3 Zrotation Xrotation Yrotation
                  End Site
                  {
                    OFFSET 1.69225 -0.51767 -0.607171
                  }
                }
              }
            }
          }
        }
      }
    }
  }
  JOINT rButtock
  {
    OFFSET -8.77824 4.35084 1.2192
    CHANNELS 3 Zrotation Xrotation Yrotation
    JOINT rThigh
    {
      OFFSET 0 -1.70687 -2.19456
      CHANNELS 3 Zrotation Xrotation Yrotation
      JOINT rShin
      {
        OFFSET 0 -36.8199 0.73152
        CHANNELS 3 Zrotation Xrotation Yrotation
        JOINT rFoot
        {
          OFFSET 0.73152 -45.1104 -5.12064
          CHANNELS 3 Zrotation Xrotation Yrotation
          End Site
          {
            OFFSET -1.1221 -3.69964 12.103
          }
        }
      }
    }
  }
  JOINT lButtock
  {
    OFFSET 8.77824 4.35084 1.2192
    CHANNELS 3 Zrotation Xrotation Yrotation
    JOINT lThigh
    {
      OFFSET 0 -1.70687 -2.19456
      CHANNELS 3 Zrotation Xrotation Yrotation
      JOINT lShin
      {
        OFFSET 0 -36.8199 0.73152
        CHANNELS 3 Zrotation Xrotation Yrotation
        JOINT lFoot
        {
          OFFSET -0.73152 -45.1104 -5.12064
          CHANNELS 3 Zrotation Xrotation Yrotation
          End Site
          {
            OFFSET 1.1221 -3.69964 12.103
          }
        }
      }
    }
  }
}
MOTION
Frames:	8
Frame Time:	0.00833333
2.30662 82.5774 54.2225 -11.1618 -7.063 12.6792 4.70711 -5.169 11.8801 -6.34229 -7.86681 2.70245 0.181096 0.138978 -3.01094 9.73185 6.90065 -6.54776 -0.0 0.0 0.0 -0.0 0.0 0.0 -2.43076e-13 -9.47081e-14 -1.36584e-13 -7.22834 31.1751 83.3819 -27.1789 -26.9371 62.2778 -0.449847 19.4884 2.8274 1.94363e-09 2.49399e-09 -7.24642e-10 3.34762e-09 4.29798e-09 -1.26404e-09 1.94365e-09 2.494e-09 -7.24644e-10 7.73091 5.47488 0.417314 1.94364e-09 2.494e-09 -7.24638e-10 2.90554 0.965183 0.102902 1.94365e-09 2.494e-09 -7.24641e-10 10.2786 0.731801 0.0259123 1.94362e-09 2.49399e-09 -7.24639e-10 2.22167 -0.733487 -0.20892 -2.43133e-13 -9.47187e-14 -1.36719e-13 -87.6511 30.7571 11.0701 26.9016 -44.2739 -91.9903 0.0321194 -5.13003 0.722908 -4.57052e-10 -1.50644e-08 2.88728e-09 -8.00916e-10 -2.60452e-08 4.99408e-09 -4.57045e-10 -1.50644e-08 2.8873e-09 -7.73091 5.47488 -0.417314 -4.57049e-10 -1.50644e-08 2.88729e-09 -2.90554 0.965183 -0.102902 -4.57054e-10 -1.50644e-08 2.88728e-09 -10.2786 0.731801 -0.0259123 -4.57043e-10 -1.50644e-08 2.88728e-09 -2.22167 -0.733487 0.20892 -2.03217e-16 0.0 -3.88251e-19 4.59818 -8.7744 25.5001 0.034406 -1.18695 0.351376 -3.75648 -4.30445 -19.66 2.03217e-16 0.0 3.88251e-19 -0.308367 -6.66074 -47.6175 0.0855307 13.5942 0.61686 30.9252 -22.0599 64.4312
2.26494 82.5721 54.2249 -11.1535 -6.7625 12.6358 4.98317 -5.06582 11.9152 -6.35018 -7.93611 2.70585 0.0825626 0.177938 -3.10831 9.95734 6.8295 -6.71824 -0.0 0.0 0.0 -0.0 0.0 0.0 -2.93908e-13 -5.96311e-14 -2.32081e-13 -4.62481 32.288 82.5812 -26.9842 -26.2853 61.3354 -0.250138 14.0978 2.02272 2.80694e-09 3.49833e-09 -1.21936e-09 4.83607e-09 6.02809e-09 -2.12946e-09 2.80696e-09 3.49834e-09 -1.21936e-09 7.73091 5.47488 0.417314 2.80696e-09 3.49834e-09 -1.21935e-09 2.90554 0.965183 0.102902 2.80696e-09 3.49834e-09 -1.21936e-09 10.2786 0.731801 0.0259123 2.80693e-09 3.49833e-09 -1.21936e-09 2.22167 -0.733487 -0.20892 -2.93967e-13 -5.96403e-14 -2.3223e-13 -87.6856 30.9421 11.185 26.9007 -44.2763 -91.995 0.0375805 -5.52464 0.778876 -4.04452e-10 -1.65327e-08 3.1697e-09 -7.12218e-10 -2.85906e-08 5.48406e-09 -4.04445e-10 -1.65327e-08 3.16971e-09 -7.73091 5.47488 -0.417314 -4.0445e-10 -1.65327e-08 3.1697e-09 -2.90554 0.965183 -0.102902 -4.04455e-10 -1.65327e-08 3.1697e-09 -10.2786 0.731801 -0.0259123 -4.04441e-10 -1.65327e-08 3.16969e-09 -2.22167 -0.733487 0.20892 -2.03217e-16 0.0 -3.88251e-19 4.98837 -8.64489 25.2605 0.0337877 -1.19682 0.347772 -3.7693 -4.34122 -19.6614 2.03217e-16 0.0 3.88251e-19 0.101752 -6.54766 -47.8136 0.0836579 13.5178 0.613945 30.8084 -21.9697 64.3997
2.21122 82.5731 54.24 -11.1719 -6.4585 12.564 4.70536 -5.13544 11.9241 -6.1764 -7.94587 2.72327 -0.0377658 0.130279 -3.19712 10.2679 6.85933 -6.88144 -0.0 0.0 0.0 -0.0 0.0 0.0 -3.17694e-13 1.96241e-14 -3.06357e-13 -2.03542 33.4539 81.5638 -26.843 -25.8384 60.696 -0.11859 9.33269 1.33301 3.05766e-09 4.29869e-09 -1.98421e-09 5.27326e-09 7.41578e-09 -3.44748e-09 3.05768e-09 4.2987e-09 -1.98422e-09 7.73091 5.47488 0.417314 3.05768e-09 4.2987e-09 -1.98421e-09 2.90554 0.965183 0.102902 3.05768e-09 4.2987e-09 -1.98421e-09 10.2786 0.731801 0.0259123 3.05765e-09 4.29869e-09 -1.98421e-09 2.22167 -0.733487 -0.20892 -3.17753e-13 1.96199e-14 -3.06536e-13 -87.5903 31.1729 11.2064 26.9084 -44.2566 -91.9553 0.0419305 -5.80805 0.819143 -2.74232e-10 -1.49557e-08 2.88567e-09 -4.87585e-10 -2.58749e-08 4.99509e-09 -2.74226e-10 -1.49557e-08 2.88569e-09 -7.73091 5.47488 -0.417314 -2.7423e-10 -1.49557e-08 2.88568e-09 -2.90554 0.965183 -0.102902 -2.74234e-10 -1.49557e-08 2.88567e-09 -10.2786 0.731801 -0.0259123 -2.7422e-10 -1.49557e-08 2.88566e-09 -2.22167 -0.733487 0.20892 -2.03217e-16 0.0 -3.88251e-19 4.97643 -8.64025 25.209 0.0338399 -1.19601 0.347786 -3.81809 -4.40353 -19.8079 2.03217e-16 0.0 3.88251e-19 0.0814922 -6.57485 -48.0789 0.0853347 13.5439 0.618859 30.8884 -21.9819 64.4565
2.14456 82.5804 54.2586 -11.2542 -6.1731 12.4997 4.07326 -5.31975 11.8987 -5.8716 -7.91947 2.74537 -0.170045 0.0301253 -3.27503 10.6248 6.95409 -7.02939 -0.0 0.0 0.0 -0.0 0.0 0.0 -3.25437e-13 1.30637e-13 -3.73538e-13 0.727307 34.687 80.2699 -26.7491 -25.5458 60.2453 -0.0356455 4.80836 0.683063 2.96336e-09 5.02657e-09 -2.9648e-09 5.11878e-09 8.68449e-09 -5.1298e-09 2.96338e-09 5.02658e-09 -2.96481e-09 7.73091 5.47488 0.417314 2.96337e-09 5.02657e-09 -2.96479e-09 2.90554 0.965183 0.102902 2.96338e-09 5.02657e-09 -2.9648e-09 10.2786 0.731801 0.0259123 2.96336e-09 5.02657e-09 -2.9648e-09 2.22167 -0.733487 -0.20892 -3.25498e-13 1.3064e-13 -3.73762e-13 -87.3791 31.4502 11.1498 26.9215 -44.2228 -91.8875 0.0452773 -6.01892 0.849136 -8.69572e-11 -1.14851e-08 2.25036e-09 -1.63281e-10 -1.98885e-08 3.89916e-09 -8.69547e-11 -1.14851e-08 2.25038e-09 -7.73091 5.47488 -0.417314 -8.69571e-11 -1.14851e-08 2.25037e-09 -2.90554 0.965183 -0.102902 -8.69602e-11 -1.14851e-08 2.25036e-09 -10.2786 0.731801 -0.0259123 -8.69459e-11 -1.14851e-08 2.25035e-09 -2.22167 -0.733487 0.20892 -2.03217e-16 0.0 -3.88251e-19 4.7125 -8.71183 25.273 0.0343224 -1.18837 0.350132 -3.89222 -4.48339 -20.0538 2.03217e-16 0.0 3.88251e-19 -0.211041 -6.6865 -48.4019 0.0892812 13.635 0.629275 31.0999 -22.0603 64.5738
2.13529 82.5843 54.263 -10.9571 -6.0064 12.5306 3.34792 -5.53885 11.8483 -5.53247 -7.88441 2.76405 -0.319593 -0.066257 -3.35378 11.0035 7.03317 -7.17425 -0.0 0.0 0.0 -0.0 0.0 0.0 -3.16086e-13 2.37656e-13 -4.15699e-13 3.59088 36.0129 78.741 -26.7164 -25.4405 60.046 -0.000313097 0.431188 0.0593969 2.66063e-09 5.45522e-09 -3.78301e-09 4.6046e-09 9.43702e-09 -6.53024e-09 2.66064e-09 5.45522e-09 -3.78303e-09 7.73091 5.47488 0.417314 2.66063e-09 5.45522e-09 -3.78301e-09 2.90554 0.965183 0.102902 2.66064e-09 5.45522e-09 -3.78301e-09 10.2786 0.731801 0.0259123 2.66063e-09 5.45521e-09 -3.78301e-09 2.22167 -0.733487 -0.20892 -3.16149e-13 2.37666e-13 -4.15967e-13 -87.1167 31.7489 11.077 26.9354 -44.1864 -91.8149 0.0486484 -6.24834 0.881746 8.48291e-11 -7.02144e-09 1.43838e-09 1.3533e-10 -1.2184e-08 2.49729e-09 8.48282e-11 -7.02146e-09 1.4384e-09 -7.73091 5.47488 -0.417314 8.48279e-11 -7.02144e-09 1.43839e-09 -2.90554 0.965183 -0.102902 8.48258e-11 -7.02145e-09 1.43838e-09 -10.2786 0.731801 -0.0259123 8.48396e-11 -7.02144e-09 1.43837e-09 -2.22167 -0.733487 0.20892 -2.03217e-16 0.0 -3.88251e-19 4.36692 -8.79113 25.3672 0.0348061 -1.18172 0.352655 -3.97638 -4.56563 -20.3494 2.03217e-16 0.0 3.88251e-19 -0.587465 -6.81446 -48.7195 0.0933522 13.7347 0.637445 31.2672 -22.1237 64.6652
2.19111 82.5966 54.2499 -10.2579 -5.9131 12.6479 2.79059 -5.71277 11.7821 -5.25562 -7.86815 2.77121 -0.491478 -0.102615 -3.44511 11.3788 7.01605 -7.32804 -0.0 0.0 0.0 -0.0 0.0 0.0 -2.88587e-13 3.04931e-13 -4.14913e-13 6.48256 37.4643 77.0256 -26.755 -25.5517 60.1649 -0.0186226 -3.89288 -0.547961 2.28604e-09 5.35788e-09 -4.06074e-09 3.96269e-09 9.27616e-09 -7.00262e-09 2.28604e-09 5.35788e-09 -4.06076e-09 7.73091 5.47488 0.417314 2.28604e-09 5.35788e-09 -4.06074e-09 2.90554 0.965183 0.102902 2.28604e-09 5.35788e-09 -4.06075e-09 10.2786 0.731801 0.0259123 2.28604e-09 5.35788e-09 -4.06075e-09 2.22167 -0.733487 -0.20892 -2.88653e-13 3.04941e-13 -4.15211e-13 -86.8697 32.0434 11.0503 26.9458 -44.1589 -91.7602 0.0535181 -6.58737 0.929936 1.68585e-10 -2.46498e-09 6.24337e-10 2.82885e-10 -4.31379e-09 1.09052e-09 1.68582e-10 -2.465e-09 6.24352e-10 -7.73091 5.47488 -0.417314 1.68583e-10 -2.46498e-09 6.24346e-10 -2.90554 0.965183 -0.102902 1.68582e-10 -2.46498e-09 6.24338e-10 -10.2786 0.731801 -0.0259123 1.68595e-10 -2.46498e-09 6.24324e-10 -2.22167 -0.733487 0.20892 -2.03217e-16 0.0 -3.88251e-19 4.10938 -8.81004 25.4055 0.0348639 -1.18389 0.353201 -4.05475 -4.63537 -20.645 2.03217e-16 0.0 3.88251e-19 -0.857357 -6.8931 -48.9684 0.09548 13.7867 0.635597 31.214 -22.0925 64.6432
2.21694 82.6012 54.2511 -9.9076 -5.6583 12.6774 2.44295 -5.82864 11.7052 -5.05985 -7.87453 2.76623 -0.696263 -0.0396058 -3.55792 11.7735 6.85562 -7.50214 -0.0 0.0 0.0 -0.0 0.0 0.0 -2.26847e-13 3.10616e-13 -3.47882e-13 9.45821 39.085 75.0395 -26.8842 -25.952 60.7451 -0.0777756 -8.37573 -1.17719 1.7571e-09 4.47118e-09 -3.54029e-09 3.04987e-09 7.7462e-09 -6.10465e-09 1.7571e-09 4.47119e-09 -3.54031e-09 7.73091 5.47488 0.417314 1.7571e-09 4.47119e-09 -3.54029e-09 2.90554 0.965183 0.102902 1.7571e-09 4.47119e-09 -3.54029e-09 10.2786 0.731801 0.0259123 1.7571e-09 4.47119e-09 -3.54029e-09 2.22167 -0.733487 -0.20892 -2.26918e-13 3.10617e-13 -3.4819e-13 -86.615 32.3721 11.072 26.9524 -44.1415 -91.7257 0.061278 -7.06154 0.997516 1.2114e-10 2.48536e-09 -2.35103e-10 2.05185e-10 4.24567e-09 -3.96747e-10 1.21136e-10 2.48534e-09 -2.35091e-10 -7.73091 5.47488 -0.417314 1.21137e-10 2.48537e-09 -2.35093e-10 -2.90554 0.965183 -0.102902 1.21136e-10 2.48536e-09 -2.35101e-10 -10.2786 0.731801 -0.0259123 1.21148e-10 2.48536e-09 -2.35114e-10 -2.22167 -0.733487 0.20892 -2.03217e-16 0.0 -3.88251e-19 3.96086 -8.73767 25.359 0.0342911 -1.20056 0.351103 -4.12053 -4.6829 -20.9337 2.03217e-16 0.0 3.88251e-19 -0.99827 -6.89068 -49.1433 0.0951374 13.7787 0.621004 30.8915 -21.9313 64.4977
2.20955 82.608 54.2828 -9.8794 -5.3018 12.5959 2.17488 -5.9263 11.6118 -4.89596 -7.89005 2.7529 -0.927595 0.0846184 -3.68404 12.1898 6.60354 -7.68736 -0.0 0.0 0.0 -0.0 0.0 0.0 -1.36698e-13 2.77884e-13 -2.30339e-13 12.5921 40.811 72.7126 -27.0747 -26.5809 61.7257 -0.182834 -12.902 -1.83247 1.0406e-09 2.98371e-09 -2.4756e-09 1.81076e-09 5.17556e-09 -4.27095e-09 1.0406e-09 2.98371e-09 -2.47561e-09 7.73091 5.47488 0.417314 1.0406e-09 2.98371e-09 -2.4756e-09 2.90554 0.965183 0.102902 1.04061e-09 2.98371e-09 -2.4756e-09 10.2786 0.731801 0.0259123 1.04061e-09 2.98371e-09 -2.4756e-09 2.22167 -0.733487 -0.20892 -1.36777e-13 2.77868e-13 -2.30643e-13 -86.3317 32.7332 11.114 26.9572 -44.1288 -91.7005 0.0717415 -7.62184 1.07763 -1.08767e-11 8.12938e-09 -1.2031e-09 -1.73213e-11 1.40099e-08 -2.0731e-09 -1.08799e-11 8.12937e-09 -1.20309e-09 -7.73091 5.47488 -0.417314 -1.0879e-11 8.12939e-09 -1.20309e-09 -2.90554 0.965183 -0.102902 -1.08803e-11 8.12939e-09 -1.2031e-09 -10.2786 0.731801 -0.0259123 -1.08697e-11 8.12938e-09 -1.2031e-09 -2.22167 -0.733487 0.20892 -2.03217e-16 0.0 -3.88251e-19 3.83919 -8.61448 25.2757 0.0333433 -1.22636 0.347543 -4.18285 -4.71809 -21.24 2.03217e-16 0.0 3.88251e-19 -1.1014 -6.8482 -49.274 0.0934062 13.74 0.598033 30.3958 -21.686 64.2733
